<?xml version="1.0" encoding="UTF-8" standalone="no"?>
<!DOCTYPE svg PUBLIC "-//W3C//DTD SVG 1.1//EN" "http://www.w3.org/Graphics/SVG/1.1/DTD/svg11.dtd">
<svg width="100%" height="100%" viewBox="0 0 1641 1012" version="1.1" xmlns="http://www.w3.org/2000/svg" xmlns:xlink="http://www.w3.org/1999/xlink" xml:space="preserve" xmlns:serif="http://www.serif.com/" style="fill-rule:evenodd;clip-rule:evenodd;stroke-linejoin:round;stroke-miterlimit:2;">
    <g transform="matrix(1,0,0,1,-504,-819)">
        <g transform="matrix(1,0,0,1,6000.85,338.328)">
            <g transform="matrix(3.20883,0,0,3.20883,9778.34,-5184.05)">
                <g>
                    <g transform="matrix(1,0,0,1,0,42.132)">
                        <g transform="matrix(1.56614,0,0,1.56614,2550.21,-1084.48)">
                            <g>
                                <g>
                                    <g transform="matrix(1.88641,0,0,1.88641,4568.58,-1772.28)">
                                        <g>
                                            <g>
                                                <g transform="matrix(-5.73727,0,0,-5.73727,2075.38,5874.47)">
                                                    <path d="M1197.16,682.977C1197.39,684.09 1198.26,684.953 1199.75,685.567C1200.37,685.815 1202.31,686.316 1205.6,687.072C1207.66,687.546 1209.3,688.102 1210.5,688.741L1198.74,688.741C1198.73,688.741 1198.71,688.739 1198.7,688.734C1197.66,688.379 1196.82,687.999 1196.2,687.596C1194.54,686.514 1193.66,684.974 1193.57,682.977L1197.16,682.977Z" style="fill:rgb(23,22,30);fill-rule:nonzero;"/>
                                                </g>
                                                <g transform="matrix(5.73727,0,0,5.73727,-11694.9,-2028.53)">
                                                    <path d="M1197.16,682.977C1197.39,684.09 1198.26,684.953 1199.75,685.567C1200.37,685.815 1202.31,686.316 1205.6,687.072C1207.66,687.546 1209.3,688.102 1210.5,688.741L1198.74,688.741C1198.73,688.741 1198.71,688.739 1198.7,688.734C1197.66,688.379 1196.82,687.999 1196.2,687.596C1194.54,686.514 1193.66,684.974 1193.57,682.977L1197.16,682.977Z" style="fill:url(#_Linear1);fill-rule:nonzero;"/>
                                                </g>
                                                <g transform="matrix(2.58397,0,0,2.58397,-7466.1,-1100.71)">
                                                    <path d="M999.217,1196.83C999.217,1197.4 999.009,1197.84 998.592,1198.15C998.175,1198.47 997.57,1198.62 996.779,1198.62C996.122,1198.62 995.585,1198.52 995.168,1198.32C994.751,1198.12 994.542,1197.88 994.542,1197.6C994.542,1197.48 994.574,1197.36 994.637,1197.25C994.7,1197.14 994.787,1197.05 994.896,1197C995.132,1197.15 995.401,1197.29 995.705,1197.41C996.008,1197.54 996.358,1197.6 996.753,1197.6C997.554,1197.6 997.954,1197.35 997.954,1196.83C997.954,1196.62 997.884,1196.45 997.745,1196.31C997.606,1196.18 997.402,1196.08 997.132,1196.01L996.235,1195.78C995.671,1195.66 995.256,1195.45 994.991,1195.18C994.726,1194.9 994.593,1194.54 994.593,1194.1C994.593,1193.61 994.793,1193.2 995.193,1192.87C995.593,1192.54 996.172,1192.37 996.93,1192.37C997.326,1192.37 997.678,1192.41 997.985,1192.49C998.293,1192.57 998.533,1192.68 998.705,1192.82C998.878,1192.96 998.964,1193.12 998.964,1193.29C998.964,1193.42 998.935,1193.53 998.876,1193.63C998.817,1193.74 998.741,1193.81 998.649,1193.86C998.548,1193.8 998.415,1193.73 998.251,1193.65C998.086,1193.58 997.897,1193.52 997.682,1193.46C997.467,1193.41 997.242,1193.38 997.006,1193.38C996.652,1193.38 996.372,1193.44 996.166,1193.57C995.96,1193.7 995.856,1193.88 995.856,1194.1C995.856,1194.27 995.915,1194.41 996.033,1194.53C996.151,1194.65 996.349,1194.74 996.627,1194.81L997.385,1194.99C998.008,1195.14 998.47,1195.36 998.769,1195.66C999.068,1195.96 999.217,1196.35 999.217,1196.83Z" style="fill:rgb(23,22,30);fill-rule:nonzero;"/>
                                                </g>
                                                <g transform="matrix(2.58397,0,0,2.58397,-7466.1,-1100.71)">
                                                    <path d="M1004.26,1198.62C1003.44,1198.62 1002.8,1198.47 1002.34,1198.15C1001.88,1197.84 1001.66,1197.37 1001.66,1196.76C1001.66,1196.2 1001.84,1195.77 1002.21,1195.48C1002.57,1195.18 1003.08,1195 1003.74,1194.94L1005.51,1194.76L1005.51,1194.47C1005.51,1194.09 1005.39,1193.81 1005.14,1193.64C1004.9,1193.47 1004.57,1193.38 1004.14,1193.38C1003.81,1193.38 1003.48,1193.43 1003.17,1193.52C1002.85,1193.61 1002.57,1193.72 1002.33,1193.85C1002.25,1193.78 1002.18,1193.7 1002.12,1193.6C1002.06,1193.51 1002.03,1193.41 1002.03,1193.31C1002.03,1193.04 1002.18,1192.84 1002.46,1192.71C1002.69,1192.6 1002.96,1192.52 1003.27,1192.46C1003.57,1192.4 1003.89,1192.37 1004.22,1192.37C1005,1192.37 1005.61,1192.54 1006.07,1192.88C1006.53,1193.21 1006.76,1193.75 1006.76,1194.48L1006.76,1197.44C1006.76,1197.63 1006.72,1197.78 1006.63,1197.89C1006.55,1197.99 1006.44,1198.09 1006.29,1198.18C1006.07,1198.3 1005.79,1198.4 1005.44,1198.49C1005.09,1198.58 1004.7,1198.62 1004.26,1198.62ZM1004.26,1197.63C1004.56,1197.63 1004.82,1197.6 1005.04,1197.53C1005.26,1197.47 1005.42,1197.41 1005.51,1197.35L1005.51,1195.71L1004.09,1195.85C1003.71,1195.88 1003.41,1195.97 1003.22,1196.11C1003.02,1196.25 1002.92,1196.46 1002.92,1196.73C1002.92,1197.01 1003.03,1197.23 1003.25,1197.39C1003.48,1197.55 1003.81,1197.63 1004.26,1197.63Z" style="fill:rgb(23,22,30);fill-rule:nonzero;"/>
                                                </g>
                                                <g transform="matrix(2.58397,0,0,2.58397,-7466.1,-1100.71)">
                                                    <path d="M1011.03,1193.8L1011.03,1195.66L1009.75,1195.66L1009.75,1193.77C1009.75,1193.57 1009.8,1193.4 1009.88,1193.28C1009.97,1193.14 1010.1,1193.02 1010.27,1192.9C1010.51,1192.75 1010.82,1192.62 1011.2,1192.52C1011.58,1192.42 1012,1192.37 1012.46,1192.37C1013.19,1192.37 1013.56,1192.58 1013.56,1192.99C1013.56,1193.09 1013.54,1193.18 1013.51,1193.27C1013.48,1193.35 1013.44,1193.42 1013.39,1193.48C1013.31,1193.47 1013.2,1193.45 1013.07,1193.44C1012.94,1193.43 1012.81,1193.42 1012.67,1193.42C1012.33,1193.42 1012.01,1193.46 1011.73,1193.53C1011.45,1193.6 1011.22,1193.69 1011.03,1193.8ZM1009.75,1195.11L1011.03,1195.23L1011.03,1198.42C1010.97,1198.44 1010.89,1198.46 1010.78,1198.49C1010.68,1198.51 1010.57,1198.52 1010.45,1198.52C1010.21,1198.52 1010.04,1198.48 1009.93,1198.39C1009.81,1198.3 1009.75,1198.15 1009.75,1197.93L1009.75,1195.11Z" style="fill:rgb(23,22,30);fill-rule:nonzero;"/>
                                                </g>
                                                <g transform="matrix(2.58397,0,0,2.58397,-7466.1,-1100.71)">
                                                    <path d="M1018.06,1198.62C1017.24,1198.62 1016.6,1198.47 1016.14,1198.15C1015.68,1197.84 1015.45,1197.37 1015.45,1196.76C1015.45,1196.2 1015.64,1195.77 1016,1195.48C1016.37,1195.18 1016.88,1195 1017.54,1194.94L1019.31,1194.76L1019.31,1194.47C1019.31,1194.09 1019.18,1193.81 1018.94,1193.64C1018.7,1193.47 1018.36,1193.38 1017.94,1193.38C1017.61,1193.38 1017.28,1193.43 1016.96,1193.52C1016.65,1193.61 1016.37,1193.72 1016.12,1193.85C1016.05,1193.78 1015.98,1193.7 1015.92,1193.6C1015.86,1193.51 1015.83,1193.41 1015.83,1193.31C1015.83,1193.04 1015.98,1192.84 1016.26,1192.71C1016.49,1192.6 1016.76,1192.52 1017.06,1192.46C1017.37,1192.4 1017.69,1192.37 1018.02,1192.37C1018.79,1192.37 1019.41,1192.54 1019.87,1192.88C1020.33,1193.21 1020.56,1193.75 1020.56,1194.48L1020.56,1197.44C1020.56,1197.63 1020.51,1197.78 1020.43,1197.89C1020.35,1197.99 1020.23,1198.09 1020.09,1198.18C1019.87,1198.3 1019.59,1198.4 1019.24,1198.49C1018.89,1198.58 1018.49,1198.62 1018.06,1198.62ZM1018.06,1197.63C1018.36,1197.63 1018.62,1197.6 1018.84,1197.53C1019.06,1197.47 1019.21,1197.41 1019.31,1197.35L1019.31,1195.71L1017.89,1195.85C1017.5,1195.88 1017.21,1195.97 1017.01,1196.11C1016.82,1196.25 1016.72,1196.46 1016.72,1196.73C1016.72,1197.01 1016.83,1197.23 1017.05,1197.39C1017.27,1197.55 1017.61,1197.63 1018.06,1197.63Z" style="fill:rgb(23,22,30);fill-rule:nonzero;"/>
                                                </g>
                                                <g transform="matrix(2.58397,0,0,2.58397,-7466.1,-1100.71)">
                                                    <path d="M1026.34,1192.37C1026.88,1192.37 1027.35,1192.49 1027.78,1192.71C1028.2,1192.94 1028.54,1193.28 1028.78,1193.74C1029.03,1194.2 1029.15,1194.78 1029.15,1195.49C1029.15,1196.19 1029.02,1196.77 1028.76,1197.24C1028.51,1197.71 1028.15,1198.06 1027.7,1198.28C1027.24,1198.51 1026.71,1198.62 1026.1,1198.62C1025.66,1198.62 1025.26,1198.57 1024.92,1198.46C1024.57,1198.35 1024.29,1198.23 1024.06,1198.1C1023.88,1197.98 1023.76,1197.86 1023.68,1197.74C1023.61,1197.62 1023.58,1197.47 1023.58,1197.29L1023.58,1193.14L1024.85,1193.14L1024.85,1197.24C1024.97,1197.32 1025.14,1197.4 1025.35,1197.48C1025.57,1197.55 1025.81,1197.59 1026.09,1197.59C1026.62,1197.59 1027.05,1197.42 1027.37,1197.08C1027.69,1196.74 1027.85,1196.21 1027.85,1195.49C1027.85,1194.77 1027.69,1194.24 1027.37,1193.91C1027.05,1193.57 1026.63,1193.41 1026.13,1193.41C1025.81,1193.41 1025.53,1193.47 1025.28,1193.59C1025.04,1193.71 1024.84,1193.85 1024.68,1194L1024.53,1192.96C1024.72,1192.83 1024.96,1192.7 1025.26,1192.57C1025.56,1192.44 1025.92,1192.37 1026.34,1192.37ZM1024.85,1193.42L1023.58,1193.42L1023.58,1190.25C1023.63,1190.23 1023.71,1190.21 1023.82,1190.19C1023.93,1190.17 1024.04,1190.16 1024.17,1190.16C1024.4,1190.16 1024.57,1190.2 1024.68,1190.29C1024.8,1190.37 1024.85,1190.52 1024.85,1190.74L1024.85,1193.42Z" style="fill:rgb(23,22,30);fill-rule:nonzero;"/>
                                                </g>
                                                <g transform="matrix(2.58397,0,0,2.58397,-7466.1,-1100.71)">
                                                    <path d="M1031.08,1197.8C1031.08,1197.57 1031.16,1197.37 1031.3,1197.21C1031.45,1197.05 1031.65,1196.97 1031.9,1196.97C1032.16,1196.97 1032.36,1197.05 1032.5,1197.21C1032.64,1197.37 1032.71,1197.57 1032.71,1197.8C1032.71,1198.03 1032.64,1198.23 1032.5,1198.38C1032.36,1198.55 1032.16,1198.62 1031.9,1198.62C1031.65,1198.62 1031.45,1198.55 1031.3,1198.38C1031.16,1198.23 1031.08,1198.03 1031.08,1197.8Z" style="fill:rgb(23,22,30);fill-rule:nonzero;"/>
                                                </g>
                                                <g transform="matrix(2.58397,0,0,2.58397,-7466.1,-1100.71)">
                                                    <path d="M1035.06,1195.11L1036.34,1195.11L1036.34,1196.73C1036.34,1197.04 1036.43,1197.26 1036.6,1197.39C1036.78,1197.51 1037.03,1197.58 1037.35,1197.58C1037.49,1197.58 1037.65,1197.56 1037.81,1197.51C1037.97,1197.47 1038.12,1197.42 1038.23,1197.36C1038.29,1197.42 1038.34,1197.49 1038.38,1197.58C1038.43,1197.66 1038.45,1197.76 1038.45,1197.88C1038.45,1198.1 1038.34,1198.28 1038.11,1198.41C1037.89,1198.55 1037.56,1198.61 1037.12,1198.61C1036.5,1198.61 1036,1198.47 1035.62,1198.2C1035.25,1197.92 1035.06,1197.46 1035.06,1196.82L1035.06,1195.11ZM1035.78,1193.7L1035.78,1192.67L1038.31,1192.67C1038.33,1192.72 1038.36,1192.78 1038.4,1192.88C1038.43,1192.97 1038.45,1193.07 1038.45,1193.17C1038.45,1193.34 1038.41,1193.48 1038.32,1193.57C1038.24,1193.65 1038.12,1193.7 1037.98,1193.7L1035.78,1193.7ZM1036.34,1195.48L1035.06,1195.48L1035.06,1190.91C1035.11,1190.89 1035.19,1190.87 1035.3,1190.85C1035.41,1190.83 1035.53,1190.82 1035.66,1190.82C1035.88,1190.82 1036.05,1190.86 1036.17,1190.95C1036.28,1191.04 1036.34,1191.19 1036.34,1191.4L1036.34,1195.48Z" style="fill:rgb(23,22,30);fill-rule:nonzero;"/>
                                                </g>
                                                <g transform="matrix(2.58397,0,0,2.58397,-7466.1,-1100.71)">
                                                    <path d="M1041.45,1196.21L1041.4,1195.28L1045.01,1194.76C1044.97,1194.36 1044.83,1194.03 1044.58,1193.77C1044.32,1193.5 1043.96,1193.37 1043.5,1193.37C1043.02,1193.37 1042.63,1193.54 1042.31,1193.88C1042,1194.21 1041.84,1194.7 1041.83,1195.33L1041.86,1195.78C1041.92,1196.39 1042.13,1196.84 1042.5,1197.15C1042.86,1197.45 1043.35,1197.6 1043.94,1197.6C1044.3,1197.6 1044.62,1197.55 1044.91,1197.44C1045.2,1197.33 1045.43,1197.21 1045.61,1197.07C1045.71,1197.14 1045.8,1197.22 1045.86,1197.32C1045.92,1197.41 1045.95,1197.52 1045.95,1197.64C1045.95,1197.83 1045.86,1197.99 1045.67,1198.14C1045.49,1198.3 1045.24,1198.41 1044.92,1198.5C1044.61,1198.58 1044.26,1198.62 1043.87,1198.62C1043.21,1198.62 1042.64,1198.51 1042.16,1198.27C1041.67,1198.03 1041.3,1197.67 1041.03,1197.19C1040.76,1196.71 1040.62,1196.13 1040.62,1195.44C1040.62,1194.94 1040.69,1194.5 1040.84,1194.12C1040.99,1193.74 1041.19,1193.42 1041.45,1193.16C1041.72,1192.9 1042.02,1192.71 1042.38,1192.57C1042.73,1192.44 1043.11,1192.37 1043.52,1192.37C1044.05,1192.37 1044.51,1192.48 1044.92,1192.71C1045.32,1192.93 1045.64,1193.24 1045.87,1193.63C1046.1,1194.02 1046.22,1194.47 1046.22,1194.99C1046.22,1195.19 1046.17,1195.34 1046.06,1195.43C1045.95,1195.53 1045.81,1195.59 1045.64,1195.62L1041.45,1196.21Z" style="fill:rgb(23,22,30);fill-rule:nonzero;"/>
                                                </g>
                                                <g transform="matrix(2.58397,0,0,2.58397,-7466.1,-1100.71)">
                                                    <path d="M1051.73,1193.42C1051.19,1193.42 1050.74,1193.6 1050.38,1193.96C1050.01,1194.32 1049.83,1194.83 1049.83,1195.51C1049.83,1196.18 1050.01,1196.69 1050.36,1197.05C1050.71,1197.4 1051.16,1197.58 1051.71,1197.58C1052.05,1197.58 1052.33,1197.53 1052.56,1197.44C1052.79,1197.36 1052.99,1197.26 1053.15,1197.15C1053.26,1197.21 1053.35,1197.29 1053.41,1197.38C1053.48,1197.47 1053.51,1197.58 1053.51,1197.72C1053.51,1197.97 1053.34,1198.18 1052.99,1198.35C1052.64,1198.53 1052.2,1198.61 1051.66,1198.61C1051.05,1198.61 1050.51,1198.5 1050.03,1198.27C1049.56,1198.04 1049.19,1197.7 1048.93,1197.24C1048.66,1196.78 1048.53,1196.2 1048.53,1195.51C1048.53,1194.81 1048.67,1194.24 1048.95,1193.77C1049.22,1193.3 1049.6,1192.95 1050.07,1192.72C1050.54,1192.49 1051.06,1192.37 1051.63,1192.37C1052.16,1192.37 1052.6,1192.46 1052.94,1192.65C1053.28,1192.83 1053.44,1193.06 1053.44,1193.32C1053.44,1193.43 1053.42,1193.53 1053.36,1193.62C1053.3,1193.71 1053.22,1193.79 1053.12,1193.84C1052.94,1193.73 1052.74,1193.63 1052.53,1193.55C1052.32,1193.46 1052.05,1193.42 1051.73,1193.42Z" style="fill:rgb(23,22,30);fill-rule:nonzero;"/>
                                                </g>
                                                <g transform="matrix(2.58397,0,0,2.58397,-7466.1,-1100.71)">
                                                    <path d="M1061.48,1195.92L1060.2,1195.92L1060.2,1194.76C1060.2,1194.3 1060.08,1193.95 1059.82,1193.74C1059.56,1193.52 1059.24,1193.41 1058.84,1193.41C1058.53,1193.41 1058.24,1193.47 1057.98,1193.58C1057.72,1193.7 1057.5,1193.84 1057.31,1194L1057.17,1192.96C1057.37,1192.83 1057.62,1192.7 1057.94,1192.57C1058.26,1192.44 1058.63,1192.37 1059.03,1192.37C1059.76,1192.37 1060.36,1192.57 1060.81,1192.95C1061.26,1193.34 1061.48,1193.92 1061.48,1194.71L1061.48,1195.92ZM1056.21,1195.11L1057.49,1195.11L1057.49,1198.42C1057.43,1198.44 1057.35,1198.46 1057.24,1198.49C1057.14,1198.51 1057.03,1198.52 1056.91,1198.52C1056.67,1198.52 1056.5,1198.48 1056.38,1198.39C1056.27,1198.3 1056.21,1198.15 1056.21,1197.93L1056.21,1195.11ZM1060.2,1195.13L1061.48,1195.14L1061.48,1198.42C1061.43,1198.44 1061.35,1198.46 1061.24,1198.49C1061.13,1198.51 1061.02,1198.52 1060.9,1198.52C1060.66,1198.52 1060.49,1198.48 1060.38,1198.39C1060.26,1198.3 1060.2,1198.15 1060.2,1197.93L1060.2,1195.13ZM1057.49,1195.76L1056.21,1195.76L1056.21,1190.25C1056.26,1190.23 1056.34,1190.21 1056.45,1190.19C1056.56,1190.17 1056.68,1190.16 1056.81,1190.16C1057.03,1190.16 1057.2,1190.2 1057.32,1190.29C1057.43,1190.37 1057.49,1190.52 1057.49,1190.74L1057.49,1195.76Z" style="fill:rgb(23,22,30);fill-rule:nonzero;"/>
                                                </g>
                                            </g>
                                        </g>
                                    </g>
                                </g>
                            </g>
                        </g>
                    </g>
                </g>
            </g>
        </g>
    </g>
    <defs>
        <linearGradient id="_Linear1" x1="0" y1="0" x2="1" y2="0" gradientUnits="userSpaceOnUse" gradientTransform="matrix(16.999,5.59818,-5.59818,16.999,1193.45,682.977)"><stop offset="0" style="stop-color:rgb(0,251,255);stop-opacity:1"/><stop offset="1" style="stop-color:rgb(0,66,255);stop-opacity:1"/></linearGradient>
    </defs>
</svg>
